<?xml version="1.0" encoding="UTF-8" standalone="no"?>
<svg
   xmlns:dc="http://purl.org/dc/elements/1.1/"
   xmlns:cc="http://creativecommons.org/ns#"
   xmlns:rdf="http://www.w3.org/1999/02/22-rdf-syntax-ns#"
   xmlns:svg="http://www.w3.org/2000/svg"
   xmlns="http://www.w3.org/2000/svg"
   xmlns:sodipodi="http://sodipodi.sourceforge.net/DTD/sodipodi-0.dtd"
   xmlns:inkscape="http://www.inkscape.org/namespaces/inkscape"
   width="160mm"
   height="90mm"
   viewBox="0 0 16000 9000"
   version="1.1"
   stroke-width="28.222"
   stroke-linejoin="round"
   xml:space="preserve"
   id="svg334"
   sodipodi:docname="experiment_projects.svg"
   inkscape:version="1.0.2 (e86c870879, 2021-01-15)"><metadata
   id="metadata340"><rdf:RDF><cc:Work
       rdf:about=""><dc:format>image/svg+xml</dc:format><dc:type
         rdf:resource="http://purl.org/dc/dcmitype/StillImage" /></cc:Work></rdf:RDF></metadata><defs
   id="defs338" /><sodipodi:namedview
   pagecolor="#ffffff"
   bordercolor="#666666"
   borderopacity="1"
   objecttolerance="10"
   gridtolerance="10"
   guidetolerance="10"
   inkscape:pageopacity="0"
   inkscape:pageshadow="2"
   inkscape:window-width="1920"
   inkscape:window-height="1026"
   id="namedview336"
   showgrid="false"
   inkscape:zoom="2.2357292"
   inkscape:cx="302.3622"
   inkscape:cy="170.07874"
   inkscape:window-x="0"
   inkscape:window-y="0"
   inkscape:window-maximized="1"
   inkscape:current-layer="svg334" />
 <path
   fill="rgb(255,255,255)"
   stroke="none"
   d="M 8000,8999 L 0,8999 0,0 15999,0 15999,8999 8000,8999 Z"
   id="path2" />
 <path
   fill="none"
   stroke="rgb(179,179,179)"
   stroke-linejoin="round"
   d="M 8447,6752 L 2276,6752 2276,1387 14619,1387 14619,6752 8447,6752 Z"
   id="path4" />
 <path
   fill="none"
   stroke="rgb(179,179,179)"
   stroke-linejoin="round"
   d="M 14619,6751 L 2276,6751"
   id="path6" />
 <path
   fill="none"
   stroke="rgb(179,179,179)"
   stroke-linejoin="round"
   d="M 14619,6154 L 2276,6154"
   id="path8" />
 <path
   fill="none"
   stroke="rgb(179,179,179)"
   stroke-linejoin="round"
   d="M 14619,5558 L 2276,5558"
   id="path10" />
 <path
   fill="none"
   stroke="rgb(179,179,179)"
   stroke-linejoin="round"
   d="M 14619,4962 L 2276,4962"
   id="path12" />
 <path
   fill="none"
   stroke="rgb(179,179,179)"
   stroke-linejoin="round"
   d="M 14619,4367 L 2276,4367"
   id="path14" />
 <path
   fill="none"
   stroke="rgb(179,179,179)"
   stroke-linejoin="round"
   d="M 14619,3770 L 2276,3770"
   id="path16" />
 <path
   fill="none"
   stroke="rgb(179,179,179)"
   stroke-linejoin="round"
   d="M 14619,3174 L 2276,3174"
   id="path18" />
 <path
   fill="none"
   stroke="rgb(179,179,179)"
   stroke-linejoin="round"
   d="M 14619,2578 L 2276,2578"
   id="path20" />
 <path
   fill="none"
   stroke="rgb(179,179,179)"
   stroke-linejoin="round"
   d="M 14619,1982 L 2276,1982"
   id="path22" />
 <path
   fill="none"
   stroke="rgb(179,179,179)"
   stroke-linejoin="round"
   d="M 14619,1386 L 2276,1386"
   id="path24" />
 <path
   fill="none"
   stroke="rgb(179,179,179)"
   stroke-linejoin="round"
   d="M 2276,6304 L 2276,6154"
   id="path26" />
 <path
   fill="none"
   stroke="rgb(179,179,179)"
   stroke-linejoin="round"
   d="M 2276,6304 L 2276,6154"
   id="path28" />
 <path
   fill="none"
   stroke="rgb(179,179,179)"
   stroke-linejoin="round"
   d="M 4744,6304 L 4744,6154"
   id="path30" />
 <path
   fill="none"
   stroke="rgb(179,179,179)"
   stroke-linejoin="round"
   d="M 4744,6304 L 4744,6154"
   id="path32" />
 <path
   fill="none"
   stroke="rgb(179,179,179)"
   stroke-linejoin="round"
   d="M 7213,6304 L 7213,6154"
   id="path34" />
 <path
   fill="none"
   stroke="rgb(179,179,179)"
   stroke-linejoin="round"
   d="M 7213,6304 L 7213,6154"
   id="path36" />
 <path
   fill="none"
   stroke="rgb(179,179,179)"
   stroke-linejoin="round"
   d="M 9681,6304 L 9681,6154"
   id="path38" />
 <path
   fill="none"
   stroke="rgb(179,179,179)"
   stroke-linejoin="round"
   d="M 9681,6304 L 9681,6154"
   id="path40" />
 <path
   fill="none"
   stroke="rgb(179,179,179)"
   stroke-linejoin="round"
   d="M 12150,6304 L 12150,6154"
   id="path42" />
 <path
   fill="none"
   stroke="rgb(179,179,179)"
   stroke-linejoin="round"
   d="M 12150,6304 L 12150,6154"
   id="path44" />
 <path
   fill="none"
   stroke="rgb(179,179,179)"
   stroke-linejoin="round"
   d="M 14619,6304 L 14619,6154"
   id="path46" />
 <path
   fill="none"
   stroke="rgb(179,179,179)"
   stroke-linejoin="round"
   d="M 14619,6304 L 14619,6154"
   id="path48" />
 <path
   fill="none"
   stroke="rgb(179,179,179)"
   stroke-linejoin="round"
   d="M 2276,6154 L 14619,6154"
   id="path50" />
 <path
   fill="none"
   stroke="rgb(179,179,179)"
   stroke-linejoin="round"
   d="M 2126,6751 L 2276,6751"
   id="path52" />
 <path
   fill="none"
   stroke="rgb(179,179,179)"
   stroke-linejoin="round"
   d="M 2126,6751 L 2276,6751"
   id="path54" />
 <path
   fill="none"
   stroke="rgb(179,179,179)"
   stroke-linejoin="round"
   d="M 2126,6154 L 2276,6154"
   id="path56" />
 <path
   fill="none"
   stroke="rgb(179,179,179)"
   stroke-linejoin="round"
   d="M 2126,6154 L 2276,6154"
   id="path58" />
 <path
   fill="none"
   stroke="rgb(179,179,179)"
   stroke-linejoin="round"
   d="M 2126,5558 L 2276,5558"
   id="path60" />
 <path
   fill="none"
   stroke="rgb(179,179,179)"
   stroke-linejoin="round"
   d="M 2126,5558 L 2276,5558"
   id="path62" />
 <path
   fill="none"
   stroke="rgb(179,179,179)"
   stroke-linejoin="round"
   d="M 2126,4962 L 2276,4962"
   id="path64" />
 <path
   fill="none"
   stroke="rgb(179,179,179)"
   stroke-linejoin="round"
   d="M 2126,4962 L 2276,4962"
   id="path66" />
 <path
   fill="none"
   stroke="rgb(179,179,179)"
   stroke-linejoin="round"
   d="M 2126,4367 L 2276,4367"
   id="path68" />
 <path
   fill="none"
   stroke="rgb(179,179,179)"
   stroke-linejoin="round"
   d="M 2126,4367 L 2276,4367"
   id="path70" />
 <path
   fill="none"
   stroke="rgb(179,179,179)"
   stroke-linejoin="round"
   d="M 2126,3770 L 2276,3770"
   id="path72" />
 <path
   fill="none"
   stroke="rgb(179,179,179)"
   stroke-linejoin="round"
   d="M 2126,3770 L 2276,3770"
   id="path74" />
 <path
   fill="none"
   stroke="rgb(179,179,179)"
   stroke-linejoin="round"
   d="M 2126,3174 L 2276,3174"
   id="path76" />
 <path
   fill="none"
   stroke="rgb(179,179,179)"
   stroke-linejoin="round"
   d="M 2126,3174 L 2276,3174"
   id="path78" />
 <path
   fill="none"
   stroke="rgb(179,179,179)"
   stroke-linejoin="round"
   d="M 2126,2578 L 2276,2578"
   id="path80" />
 <path
   fill="none"
   stroke="rgb(179,179,179)"
   stroke-linejoin="round"
   d="M 2126,2578 L 2276,2578"
   id="path82" />
 <path
   fill="none"
   stroke="rgb(179,179,179)"
   stroke-linejoin="round"
   d="M 2126,1982 L 2276,1982"
   id="path84" />
 <path
   fill="none"
   stroke="rgb(179,179,179)"
   stroke-linejoin="round"
   d="M 2126,1982 L 2276,1982"
   id="path86" />
 <path
   fill="none"
   stroke="rgb(179,179,179)"
   stroke-linejoin="round"
   d="M 2126,1386 L 2276,1386"
   id="path88" />
 <path
   fill="none"
   stroke="rgb(179,179,179)"
   stroke-linejoin="round"
   d="M 2126,1386 L 2276,1386"
   id="path90" />
 <path
   fill="none"
   stroke="rgb(179,179,179)"
   stroke-linejoin="round"
   d="M 2276,6751 L 2276,1386"
   id="path92" />
 <path
   fill="rgb(0,69,134)"
   stroke="none"
   d="M 12561,6154 L 13384,6154 13384,6083 12561,6083 12561,6154 Z"
   id="path94" />
 <path
   fill="rgb(0,69,134)"
   stroke="none"
   d="M 10092,6154 L 10915,6154 10915,6137 10092,6137 10092,6154 Z"
   id="path96" />
 <path
   fill="rgb(0,69,134)"
   stroke="none"
   d="M 7625,6154 L 8446,6154 8446,4455 7625,4455 7625,6154 Z"
   id="path98" />
 <path
   fill="rgb(0,69,134)"
   stroke="none"
   d="M 5156,6154 L 5979,6154 5979,2143 5156,2143 5156,6154 Z"
   id="path100" />
 <path
   fill="rgb(0,69,134)"
   stroke="none"
   d="M 2687,6154 L 3510,6154 3510,3227 2687,3227 2687,6154 Z"
   id="path102" />
 <path
   fill="rgb(255,66,14)"
   stroke="none"
   d="M 13384,6154 L 14207,6154 14207,6068 13384,6068 13384,6154 Z"
   id="path104" />
 <path
   fill="rgb(255,66,14)"
   stroke="none"
   d="M 10915,6154 L 11738,6154 11738,6149 10915,6149 10915,6154 Z"
   id="path106" />
 <path
   fill="rgb(255,66,14)"
   stroke="none"
   d="M 8447,6425 L 9269,6425 9269,6154 8447,6154 8447,6425 Z"
   id="path108" />
 <path
   fill="rgb(255,66,14)"
   stroke="none"
   d="M 5979,6154 L 6802,6154 6802,2685 5979,2685 5979,6154 Z"
   id="path110" />
 <path
   fill="rgb(255,66,14)"
   stroke="none"
   d="M 3510,6154 L 4333,6154 4333,4099 3510,4099 3510,6154 Z"
   id="path112" />
 <path
   fill="none"
   stroke="rgb(0,0,0)"
   stroke-linejoin="round"
   d="M 3098,3261 L 3098,3227 3098,3194"
   id="path114" />
 <path
   fill="none"
   stroke="rgb(0,0,0)"
   stroke-linejoin="round"
   d="M 3198,3261 L 2998,3261"
   id="path116" />
 <path
   fill="none"
   stroke="rgb(0,0,0)"
   stroke-linejoin="round"
   d="M 2998,3194 L 3198,3194"
   id="path118" />
 <path
   fill="none"
   stroke="rgb(0,0,0)"
   stroke-linejoin="round"
   d="M 5567,2173 L 5567,2143 5567,2113"
   id="path120" />
 <path
   fill="none"
   stroke="rgb(0,0,0)"
   stroke-linejoin="round"
   d="M 5667,2173 L 5467,2173"
   id="path122" />
 <path
   fill="none"
   stroke="rgb(0,0,0)"
   stroke-linejoin="round"
   d="M 5467,2113 L 5667,2113"
   id="path124" />
 <path
   fill="none"
   stroke="rgb(0,0,0)"
   stroke-linejoin="round"
   d="M 8035,4904 L 8035,4455 8035,4004"
   id="path126" />
 <path
   fill="none"
   stroke="rgb(0,0,0)"
   stroke-linejoin="round"
   d="M 8135,4904 L 7936,4904"
   id="path128" />
 <path
   fill="none"
   stroke="rgb(0,0,0)"
   stroke-linejoin="round"
   d="M 7936,4004 L 8135,4004"
   id="path130" />
 <path
   fill="none"
   stroke="rgb(0,0,0)"
   stroke-linejoin="round"
   d="M 10504,6159 L 10504,6137 10504,6115"
   id="path132" />
 <path
   fill="none"
   stroke="rgb(0,0,0)"
   stroke-linejoin="round"
   d="M 10604,6159 L 10404,6159"
   id="path134" />
 <path
   fill="none"
   stroke="rgb(0,0,0)"
   stroke-linejoin="round"
   d="M 10404,6115 L 10604,6115"
   id="path136" />
 <path
   fill="none"
   stroke="rgb(0,0,0)"
   stroke-linejoin="round"
   d="M 12973,6219 L 12973,6083 12973,5947"
   id="path138" />
 <path
   fill="none"
   stroke="rgb(0,0,0)"
   stroke-linejoin="round"
   d="M 13073,6219 L 12873,6219"
   id="path140" />
 <path
   fill="none"
   stroke="rgb(0,0,0)"
   stroke-linejoin="round"
   d="M 12873,5947 L 13073,5947"
   id="path142" />
 <path
   fill="none"
   stroke="rgb(0,0,0)"
   stroke-linejoin="round"
   d="M 3921,4132 L 3921,4099 3921,4065"
   id="path144" />
 <path
   fill="none"
   stroke="rgb(0,0,0)"
   stroke-linejoin="round"
   d="M 4021,4132 L 3821,4132"
   id="path146" />
 <path
   fill="none"
   stroke="rgb(0,0,0)"
   stroke-linejoin="round"
   d="M 3821,4065 L 4021,4065"
   id="path148" />
 <path
   fill="none"
   stroke="rgb(0,0,0)"
   stroke-linejoin="round"
   d="M 6390,2715 L 6390,2685 6390,2655"
   id="path150" />
 <path
   fill="none"
   stroke="rgb(0,0,0)"
   stroke-linejoin="round"
   d="M 6490,2715 L 6290,2715"
   id="path152" />
 <path
   fill="none"
   stroke="rgb(0,0,0)"
   stroke-linejoin="round"
   d="M 6290,2655 L 6490,2655"
   id="path154" />
 <path
   fill="none"
   stroke="rgb(0,0,0)"
   stroke-linejoin="round"
   d="M 8858,6751 L 8858,6425 8858,5974"
   id="path156" />
 <path
   fill="none"
   stroke="rgb(0,0,0)"
   stroke-linejoin="round"
   d="M 8758,5974 L 8958,5974"
   id="path158" />
 <path
   fill="none"
   stroke="rgb(0,0,0)"
   stroke-linejoin="round"
   d="M 11327,6171 L 11327,6149 11327,6126"
   id="path160" />
 <path
   fill="none"
   stroke="rgb(0,0,0)"
   stroke-linejoin="round"
   d="M 11427,6171 L 11227,6171"
   id="path162" />
 <path
   fill="none"
   stroke="rgb(0,0,0)"
   stroke-linejoin="round"
   d="M 11227,6126 L 11427,6126"
   id="path164" />
 <path
   fill="none"
   stroke="rgb(0,0,0)"
   stroke-linejoin="round"
   d="M 13796,6204 L 13796,6068 13796,5932"
   id="path166" />
 <path
   fill="none"
   stroke="rgb(0,0,0)"
   stroke-linejoin="round"
   d="M 13896,6204 L 13696,6204"
   id="path168" />
 <path
   fill="none"
   stroke="rgb(0,0,0)"
   stroke-linejoin="round"
   d="M 13696,5932 L 13896,5932"
   id="path170" />
 <text
   class="TextShape"
   transform="rotate(-44.9 1761 8405)"
   id="text178"><tspan
     class="TextParagraph"
     font-family="Latin Modern Math"
     font-size="353px"
     font-weight="400"
     id="tspan176"><tspan
       class="TextPosition"
       x="1761"
       y="8405"
       id="tspan174"><tspan
         fill="rgb(0,0,0)"
         stroke="none"
         id="tspan172">GCC (bootstrap)</tspan></tspan></tspan></text>
 <text
   class="TextShape"
   transform="rotate(-44.9 3891 8743)"
   id="text186"><tspan
     class="TextParagraph"
     font-family="Latin Modern Math"
     font-size="353px"
     font-weight="400"
     id="tspan184"><tspan
       class="TextPosition"
       x="3891"
       y="8743"
       id="tspan182"><tspan
         fill="rgb(0,0,0)"
         stroke="none"
         id="tspan180">GCC (no bootstrap)</tspan></tspan></tspan></text>
 <text
   class="TextShape"
   transform="rotate(-44.9 7408 7695)"
   id="text194"><tspan
     class="TextParagraph"
     font-family="Latin Modern Math"
     font-size="353px"
     font-weight="400"
     id="tspan192"><tspan
       class="TextPosition"
       x="7408"
       y="7695"
       id="tspan190"><tspan
         fill="rgb(0,0,0)"
         stroke="none"
         id="tspan188">Git 2.30.0</tspan></tspan></tspan></text>
 <text
   class="TextShape"
   transform="rotate(-44.9,9614,7957)"
   id="text202"><tspan
     class="TextParagraph"
     font-family="'Latin Modern Math'"
     font-size="353px"
     font-weight="400"
     id="tspan200"><tspan
       class="TextPosition"
       x="9614"
       y="7957"
       id="tspan198"><tspan
         fill="#000000"
         stroke="none"
         id="tspan196">Linux 5.8-rc6</tspan></tspan></tspan></text>
 <text
   class="TextShape"
   transform="rotate(-44.9 12195 7845)"
   id="text210"><tspan
     class="TextParagraph"
     font-family="Latin Modern Math"
     font-size="353px"
     font-weight="400"
     id="tspan208"><tspan
       class="TextPosition"
       x="12195"
       y="7845"
       id="tspan206"><tspan
         fill="rgb(0,0,0)"
         stroke="none"
         id="tspan204">JSON C++</tspan></tspan></tspan></text>
 <text
   class="TextShape"
   id="text218"><tspan
     class="TextParagraph"
     font-family="Latin Modern Math"
     font-size="353px"
     font-weight="400"
     id="tspan216"><tspan
       class="TextPosition"
       x="1735"
       y="6845"
       id="tspan214"><tspan
         fill="rgb(0,0,0)"
         stroke="none"
         id="tspan212">-5</tspan></tspan></tspan></text>
 <text
   class="TextShape"
   id="text226"><tspan
     class="TextParagraph"
     font-family="Latin Modern Math"
     font-size="353px"
     font-weight="400"
     id="tspan224"><tspan
       class="TextPosition"
       x="1841"
       y="6248"
       id="tspan222"><tspan
         fill="rgb(0,0,0)"
         stroke="none"
         id="tspan220">0</tspan></tspan></tspan></text>
 <text
   class="TextShape"
   id="text234"><tspan
     class="TextParagraph"
     font-family="Latin Modern Math"
     font-size="353px"
     font-weight="400"
     id="tspan232"><tspan
       class="TextPosition"
       x="1841"
       y="5652"
       id="tspan230"><tspan
         fill="rgb(0,0,0)"
         stroke="none"
         id="tspan228">5</tspan></tspan></tspan></text>
 <text
   class="TextShape"
   id="text242"><tspan
     class="TextParagraph"
     font-family="Latin Modern Math"
     font-size="353px"
     font-weight="400"
     id="tspan240"><tspan
       class="TextPosition"
       x="1656"
       y="5056"
       id="tspan238"><tspan
         fill="rgb(0,0,0)"
         stroke="none"
         id="tspan236">10</tspan></tspan></tspan></text>
 <text
   class="TextShape"
   id="text250"><tspan
     class="TextParagraph"
     font-family="Latin Modern Math"
     font-size="353px"
     font-weight="400"
     id="tspan248"><tspan
       class="TextPosition"
       x="1656"
       y="4460"
       id="tspan246"><tspan
         fill="rgb(0,0,0)"
         stroke="none"
         id="tspan244">15</tspan></tspan></tspan></text>
 <text
   class="TextShape"
   id="text258"><tspan
     class="TextParagraph"
     font-family="Latin Modern Math"
     font-size="353px"
     font-weight="400"
     id="tspan256"><tspan
       class="TextPosition"
       x="1656"
       y="3863"
       id="tspan254"><tspan
         fill="rgb(0,0,0)"
         stroke="none"
         id="tspan252">20</tspan></tspan></tspan></text>
 <text
   class="TextShape"
   id="text266"><tspan
     class="TextParagraph"
     font-family="Latin Modern Math"
     font-size="353px"
     font-weight="400"
     id="tspan264"><tspan
       class="TextPosition"
       x="1656"
       y="3267"
       id="tspan262"><tspan
         fill="rgb(0,0,0)"
         stroke="none"
         id="tspan260">25</tspan></tspan></tspan></text>
 <text
   class="TextShape"
   id="text274"><tspan
     class="TextParagraph"
     font-family="Latin Modern Math"
     font-size="353px"
     font-weight="400"
     id="tspan272"><tspan
       class="TextPosition"
       x="1656"
       y="2671"
       id="tspan270"><tspan
         fill="rgb(0,0,0)"
         stroke="none"
         id="tspan268">30</tspan></tspan></tspan></text>
 <text
   class="TextShape"
   id="text282"><tspan
     class="TextParagraph"
     font-family="Latin Modern Math"
     font-size="353px"
     font-weight="400"
     id="tspan280"><tspan
       class="TextPosition"
       x="1656"
       y="2075"
       id="tspan278"><tspan
         fill="rgb(0,0,0)"
         stroke="none"
         id="tspan276">35</tspan></tspan></tspan></text>
 <text
   class="TextShape"
   id="text290"><tspan
     class="TextParagraph"
     font-family="Latin Modern Math"
     font-size="353px"
     font-weight="400"
     id="tspan288"><tspan
       class="TextPosition"
       x="1656"
       y="1479"
       id="tspan286"><tspan
         fill="rgb(0,0,0)"
         stroke="none"
         id="tspan284">40</tspan></tspan></tspan></text>
 <text
   class="TextShape"
   id="text304"><tspan
     class="TextParagraph"
     font-family="Latin Modern Math"
     font-size="388px"
     font-weight="400"
     id="tspan296"><tspan
       class="TextPosition"
       x="4243"
       y="614"
       id="tspan294"><tspan
         fill="rgb(0,0,0)"
         stroke="none"
         id="tspan292">AMD Opteron 6376 (32 cores, 64 threads)</tspan></tspan></tspan><tspan
     class="TextParagraph"
     font-family="Latin Modern Math"
     font-size="388px"
     font-weight="400"
     id="tspan302"><tspan
       class="TextPosition"
       x="4984"
       y="1011"
       id="tspan300"><tspan
         fill="rgb(0,0,0)"
         stroke="none"
         id="tspan298">$ make -j64; 8 threads in compiler</tspan></tspan></tspan></text>
 <path
   fill="rgb(0,69,134)"
   stroke="none"
   d="M 10912,1910 L 10806,1910 10806,1699 11017,1699 11017,1910 10912,1910 Z"
   id="path306" />
 <path
   fill="rgb(255,66,14)"
   stroke="none"
   d="M 10912,2355 L 10806,2355 10806,2144 11017,2144 11017,2355 10912,2355 Z"
   id="path308" />
 <text
   class="TextShape"
   id="text316"><tspan
     class="TextParagraph"
     font-family="Latin Modern Math"
     font-size="353px"
     font-weight="400"
     id="tspan314"><tspan
       class="TextPosition"
       x="11117"
       y="1897"
       id="tspan312"><tspan
         fill="rgb(0,0,0)"
         stroke="none"
         id="tspan310">lto-min-partition=10³</tspan></tspan></tspan></text>
 <text
   class="TextShape"
   id="text324"><tspan
     class="TextParagraph"
     font-family="Latin Modern Math"
     font-size="353px"
     font-weight="400"
     id="tspan322"><tspan
       class="TextPosition"
       x="11117"
       y="2342"
       id="tspan320"><tspan
         fill="rgb(0,0,0)"
         stroke="none"
         id="tspan318">lto-min-partition=10⁵</tspan></tspan></tspan></text>
 <text
   class="TextShape"
   transform="rotate(-90 1105 5919)"
   id="text332"><tspan
     class="TextParagraph"
     font-family="Latin Modern Math"
     font-size="318px"
     font-weight="400"
     id="tspan330"><tspan
       class="TextPosition"
       x="1105"
       y="5919"
       id="tspan328"><tspan
         fill="rgb(0,0,0)"
         stroke="none"
         id="tspan326">Speedup (%)</tspan></tspan></tspan></text>
</svg>
